# xmcd
#
# Track frame offsets: 
#        150
#        19863
#        42394
#        58684
#        84975
#        108895
#        166298
#        192946
#        220840
#        282621
#
# Disc length: 4081 seconds
#
# Revision: 5
# Processed by: cddbd v1.5.2PL0 Copyright (c) Steve Scherf et al.
# Submitted via: ExactAudioCopy v1.0b3
#
DISCID=890fef0a
DTITLE=Various Artist - stereoplay 2018-01 - Ultimative Dynamik [AVM]
DYEAR=2017
DGENRE=Audiophile
TTITLE0=Doug MacLeod - This Road I'm Walking
TTITLE1=Cuba Percussion and Friends - La Jelengera
TTITLE2=Erpfenbrass - Wirklich
TTITLE3=Scott DuBois - Mid-October Migration
TTITLE4=Jaurena Ruf Project - Angel Bailarin
TTITLE5=K.Karabits - A.Dvorak -Cellokonzert h-moll, 3. Satz Finale All
TTITLE5=egro moderato [M.Coppey, -Deut. Sinf.or.Bln
TTITLE6=M.Mussorgsky -Bild. e. Ausst. -Das gr. Tor v. Kiew [J.Endebroc
TTITLE6=k and S. Rohn, org. -K.Graf, perc.
TTITLE7=F.Fennell - Ch.M.Widor -Lord, Save Thy People [Paul Riedo -org
TTITLE7=, -Dallas Wind Symphony
TTITLE8=G.Hanson - J.S.Bach, O.Respighi -Passacaglia in do minore [Wup
TTITLE8=pertal Symphony Orchestra 
TTITLE9=K.Karabits - S.Prokofiew -Revolutionskantate - 6. Satz 'Revolu
TTITLE9=tion' [Ernst Senff Chor, Staatskap. Weimar
EXTD=
EXTT0=
EXTT1=
EXTT2=
EXTT3=
EXTT4=
EXTT5=
EXTT6=
EXTT7=
EXTT8=
EXTT9=
PLAYORDER=
